<?xml version="1.0" encoding="utf-8"?>
<!-- Generator: Adobe Illustrator 16.0.0, SVG Export Plug-In . SVG Version: 6.00 Build 0)  -->
<!DOCTYPE svg PUBLIC "-//W3C//DTD SVG 1.1//EN" "http://www.w3.org/Graphics/SVG/1.1/DTD/svg11.dtd">
<svg version="1.1" xmlns="http://www.w3.org/2000/svg" xmlns:xlink="http://www.w3.org/1999/xlink" x="0px" y="0px"
	 width="226.118px" height="41.506px" viewBox="0 0 226.118 41.506" enable-background="new 0 0 226.118 41.506"
	 xml:space="preserve">
<g id="Layer_2" display="none">
</g>
<g id="Layer_3">
	<g>
		<path fill="#FFFFFF" d="M20.398,39.62c-1.85,0.873-3.749,1.402-5.694,1.6c-1.945,0.193-3.651,0.289-5.117,0.287
			c-2.932-0.006-5.374-0.785-7.324-2.34c-1.951-1.555-2.641-4.121-2.069-7.697c0.534-3.34,1.913-5.722,4.137-7.149
			c2.224-1.426,4.92-2.375,8.092-2.846c0.406,0.002,0.905-0.058,1.495-0.176c0.588-0.118,1.256-0.216,2.003-0.295
			c3.658-0.469,5.615-1.498,5.87-3.088c0.19-1.192-0.317-1.969-1.521-2.33c-1.206-0.359-2.339-0.541-3.396-0.543
			c-1.142-0.002-2.185,0.156-3.131,0.471c-0.948,0.317-1.694,0.912-2.24,1.784l-8.185-0.017c0.718-2.463,2.184-4.486,4.394-6.074
			c2.49-1.823,5.771-2.731,9.844-2.723c4.561,0.009,7.859,0.773,9.899,2.287c2.105,1.596,2.932,3.822,2.474,6.684l-1.735,10.85
			c-0.508,3.18-1.498,5.662-2.963,7.449C23.765,37.54,22.153,38.831,20.398,39.62z M20.788,24.95c-1.23,0.555-2.9,1.067-5.012,1.541
			l-2.905,0.59c-1.53,0.396-2.672,0.91-3.424,1.544c-0.711,0.875-1.135,1.748-1.275,2.621c-0.19,1.191,0.023,2.146,0.642,2.863
			c0.63,0.639,1.638,0.957,3.023,0.961c2.279,0.004,4.173-0.627,5.68-1.896c1.505-1.27,2.438-3.018,2.793-5.242L20.788,24.95z"/>
		<path fill="#FFFFFF" d="M62.371,9.292l-2.975,18.602c-0.903,5.645-3.002,9.338-6.293,11.078
			c-3.293,1.744-6.731,2.609-10.314,2.604c-3.478-0.168-6.521-1.127-9.131-2.881c-2.612-1.754-3.479-5.375-2.602-10.859
			l2.975-18.601l8.551,0.018L39.34,29.522c-0.305,1.906,0.042,3.301,1.042,4.176c1,0.879,2.233,1.316,3.699,1.32
			c1.466,0.002,2.859-0.432,4.18-1.305c1.319-0.871,2.134-2.262,2.439-4.17l2.593-16.215c0.178-1.111,0.716-2.064,1.619-2.858
			c0.899-0.792,1.961-1.189,3.183-1.187L62.371,9.292z"/>
		<path fill="#FFFFFF" d="M74.62,41.043c-2.713,0.152-5.619,0.107-8.714-0.137c-3.099-0.246-4.354-2.195-3.769-5.852L67.742,0
			l4.397,0.009c1.058,0.002,1.931,0.402,2.619,1.198c0.685,0.797,0.942,1.752,0.764,2.865l-0.858,5.365l5.008,0.01l-0.267,1.669
			c-0.19,1.192-0.755,2.165-1.688,2.919c-0.936,0.754-1.974,1.129-3.113,1.127L73.75,15.16l-2.822,17.645
			c-0.216,1.354,0.488,2.029,2.118,2.033l2.565,0.004L74.62,41.043z"/>
		<path fill="#FFFFFF" d="M81.406,38.196c-1.481-1.436-2.396-3.363-2.74-5.791c-0.345-2.426-0.309-4.951,0.11-7.574
			c0.344-2.146,0.992-4.292,1.947-6.438c0.953-2.144,2.195-3.931,3.729-5.359c2.498-2.38,5.451-3.784,8.861-4.215
			c3.407-0.429,6.381-0.166,8.914,0.794c2.904,1.198,4.854,3.27,5.85,6.213c0.965,2.625,1.168,5.689,0.609,9.186
			c-0.408,2.545-1.043,4.729-1.905,6.555c-0.863,1.83-1.844,3.377-2.941,4.646c-2.375,2.619-5.12,4.244-8.234,4.873
			c-2.802,0.709-5.52,0.764-8.151,0.162C84.82,40.647,82.804,39.629,81.406,38.196z M90.625,17.222
			c-2.003,1.826-3.213,4.547-3.628,8.163c-0.415,3.618-0.126,6.141,0.867,7.575c0.386,0.639,1.156,1.176,2.308,1.615
			c1.151,0.441,2.386,0.482,3.707,0.127c1.318-0.355,2.582-1.246,3.788-2.676c1.205-1.43,2.104-3.732,2.693-6.913
			c0.458-2.861,0.332-5.009-0.375-6.441c-0.708-1.432-1.641-2.348-2.798-2.748c-1.158-0.4-2.377-0.423-3.655-0.068
			C92.252,16.211,91.283,16.668,90.625,17.222z"/>
		<path fill="#FFFFFF" d="M109.019,41.114l5.873-36.724c0.191-1.192,0.781-2.205,1.77-3.038c0.988-0.833,2.094-1.248,3.314-1.246
			l12.094,0.025c6.432,0.013,10.971,1.692,13.613,5.037c2.617,3.505,3.379,8.675,2.285,15.511c-0.584,3.656-1.684,6.954-3.293,9.893
			c-1.787,3.018-3.865,5.318-6.236,6.904c-2.008,1.35-4.074,2.299-6.197,2.85c-2.045,0.553-5.063,0.824-9.053,0.816L109.019,41.114z
			 M118.63,33.739l6.963,0.014c3.99,0.008,7.086-1.018,9.291-3.082c2.096-1.902,3.525-5.241,4.289-10.009
			c0.736-4.609,0.424-7.99-0.945-10.141c-1.285-2.149-3.721-3.227-7.303-3.234l-8.063-0.017L118.63,33.739z"/>
		<path fill="#FFFFFF" d="M147.962,41.194l5.873-36.724c0.191-1.192,0.781-2.205,1.77-3.038c0.988-0.832,2.1-1.288,3.334-1.365
			l4.641,0.01l12.583,28.293l4.52-28.258l8.551,0.018l-6.578,41.135l-8.917-0.018l-12.705-28.293l-4.52,28.258L147.962,41.194z"/>
		<path fill="#FFFFFF" d="M210.567,0.292l6.84,0.014l8.711,41.047l-9.162-0.02l-1.457-8.471l-16.369-0.033l-4.039,8.459
			l-9.162-0.018l20.047-38.245C206.999,1.201,208.53,0.289,210.567,0.292z M211.206,8.523l-8.648,17.397l11.729,0.023L211.206,8.523
			z"/>
	</g>
</g>
</svg>
